<svg width="317" height="2951" viewBox="0 0 317 2951" fill="none" xmlns="http://www.w3.org/2000/svg">
<path d="M953 -4.1657e-05C700.249 -3.06088e-05 457.849 155.454 279.127 432.164C100.405 708.874 -6.25194e-05 1084.17 -6.44962e-05 1475.5C-6.64729e-05 1866.83 100.405 2242.13 279.127 2518.84C457.849 2795.55 700.249 2951 953 2951L953 2931.67C703.559 2931.67 464.335 2778.26 287.954 2505.17C111.572 2232.08 12.4823 1861.7 12.4823 1475.5C12.4823 1089.3 111.572 718.915 287.954 445.83C464.335 172.744 703.559 19.3261 953 19.3261L953 -4.1657e-05Z" fill="white"/>
</svg>
